<?xml version="1.0" standalone="no"?>
<!DOCTYPE svg PUBLIC "-//W3C//DTD SVG 20010904//EN"
 "http://www.w3.org/TR/2001/REC-SVG-20010904/DTD/svg10.dtd">
<svg version="1.0" xmlns="http://www.w3.org/2000/svg"
 width="256.000000pt" height="256.000000pt" viewBox="0 0 256.000000 256.000000"
 preserveAspectRatio="xMidYMid meet">
<metadata>
Created by potrace 1.11, written by Peter Selinger 2001-2013
</metadata>
<g transform="translate(0.000000,256.000000) scale(0.100000,-0.100000)"
fill="#000000" stroke="none">
<path d="M0 1280 l0 -1280 1280 0 1280 0 0 1280 0 1280 -1280 0 -1280 0 0
-1280z m1158 854 c31 -21 29 -67 -3 -92 -24 -19 -24 -21 -11 -58 l13 -39 120
-2 121 -2 11 44 c14 55 14 55 -4 55 -26 0 -47 44 -36 73 14 36 51 43 125 23
82 -23 106 -40 106 -75 0 -34 -18 -51 -56 -55 -24 -3 -30 -10 -40 -49 l-12
-46 66 -31 c37 -17 81 -42 99 -56 17 -13 36 -24 40 -24 5 0 23 15 40 33 29 29
30 34 17 51 -18 26 -18 45 3 68 30 33 63 22 125 -39 64 -63 73 -96 37 -128
-17 -16 -24 -17 -52 -7 -28 11 -34 9 -59 -15 -34 -33 -35 -40 -2 -84 14 -19
39 -61 56 -94 17 -33 32 -61 33 -63 2 -2 21 2 44 8 38 10 41 13 41 45 0 48 36
73 77 53 24 -11 32 -26 51 -96 22 -77 23 -84 8 -107 -22 -34 -70 -34 -91 -1
-16 24 -17 24 -61 9 -34 -11 -44 -19 -39 -31 3 -9 6 -62 6 -118 l0 -103 36
-12 c32 -10 38 -10 49 7 35 51 61 57 94 24 25 -25 25 -29 1 -120 -20 -74 -39
-100 -73 -100 -26 0 -61 38 -55 61 6 22 3 24 -44 33 -35 6 -36 5 -54 -36 -11
-24 -37 -71 -58 -106 l-40 -63 28 -29 c24 -25 29 -27 42 -14 18 17 65 18 81 2
7 -7 12 -26 12 -43 0 -24 -12 -43 -59 -89 -51 -50 -62 -57 -92 -54 -41 4 -62
45 -40 80 11 17 9 23 -10 44 -12 13 -26 24 -31 24 -4 0 -37 -20 -72 -44 -36
-24 -81 -50 -100 -57 -36 -13 -41 -24 -30 -66 5 -17 14 -23 34 -23 34 0 60
-23 60 -54 0 -31 -25 -51 -89 -70 -101 -30 -143 -17 -143 41 0 23 18 47 44 55
5 2 4 17 -2 34 l-11 31 -124 -1 -125 0 -10 -30 c-13 -37 -13 -36 4 -36 21 0
46 -28 46 -52 0 -32 -29 -58 -65 -58 -42 0 -136 28 -157 48 -37 32 -9 92 43
92 22 0 29 5 34 31 8 36 13 30 -55 64 -30 15 -76 42 -102 61 l-47 34 -27 -23
c-24 -21 -25 -26 -14 -46 16 -31 5 -69 -25 -83 -21 -9 -30 -7 -65 17 -62 43
-103 100 -96 131 9 34 48 51 82 35 22 -10 28 -8 44 11 25 30 25 31 -13 86 -17
26 -43 71 -57 100 -20 44 -28 52 -45 48 -11 -3 -28 -6 -37 -6 -13 0 -18 -8
-18 -29 0 -54 -58 -82 -92 -43 -20 21 -48 115 -48 157 0 40 16 55 57 55 26 0
36 -6 45 -25 13 -28 14 -29 54 -15 l29 10 0 122 -1 122 -34 11 c-31 11 -36 10
-52 -10 -27 -35 -56 -38 -85 -9 -27 27 -26 35 4 142 16 57 40 77 79 68 27 -7
48 -40 41 -66 -3 -13 2 -20 22 -25 14 -3 33 -8 43 -11 12 -4 23 10 42 52 15
31 41 78 60 103 l33 47 -27 33 c-24 28 -31 31 -48 22 -29 -15 -58 -14 -76 5
-30 29 -19 62 41 125 45 48 62 59 88 59 17 0 36 -5 43 -12 15 -15 15 -53 0
-78 -11 -17 -8 -23 22 -49 l35 -29 57 40 c32 21 78 47 102 57 l44 19 -11 46
c-10 43 -12 46 -44 46 -26 0 -36 6 -44 24 -16 35 -4 72 28 85 24 9 126 38 143
40 3 1 16 -6 28 -15z"/>
<path d="M1090 1602 c-34 -34 -37 -50 -15 -91 24 -48 81 -56 120 -16 31 30 32
66 3 99 -37 41 -72 43 -108 8z"/>
<path d="M1440 1398 c-68 -47 -89 -137 -47 -198 36 -54 71 -74 127 -74 54 0
87 18 124 68 30 40 29 120 -3 165 -44 62 -140 80 -201 39z"/>
<path d="M999 1191 c-26 -27 -35 -55 -30 -101 6 -55 63 -95 124 -87 55 8 88
42 94 101 5 42 3 48 -30 81 -30 30 -42 35 -82 35 -38 0 -52 -5 -76 -29z"/>
</g>
</svg>
